<svg width="67" height="67" viewBox="0 0 67 67" fill="none" xmlns="http://www.w3.org/2000/svg">
<path d="M62.8125 18.8438L31.4062 6.28125L15.0373 11.7376V2.09375C15.0373 0.938 14.0993 0 12.9436 0H2.09375C0.938 0 0 0.938 0 2.09375V60.7188C0 64.1881 2.81191 67 6.28125 67H60.7188C64.1881 67 67 64.1881 67 60.7188V18.8438H62.8125Z" fill="#F2C99E"/>
<path d="M31.4062 0H35.5938L67 12.5625V18.8438H62.8125L31.4062 6.28125L0 16.75V10.4688L31.4062 0Z" fill="#C9483A"/>
<path d="M56.5312 67H6.28125C2.81191 67 0 64.1881 0 60.7188V2.09375C0 0.938 0.938 0 2.09375 0H8.375C9.53075 0 10.4688 0.938 10.4688 2.09375V13.2597L31.4062 6.28125L62.8125 18.8438V60.7188C62.8125 64.1881 60.0006 67 56.5312 67Z" fill="#F9E0BD"/>
<path d="M23.0312 54.4375H14.6562V41.875H23.0312V54.4375ZM23.0312 20.9375H14.6562V33.5H23.0312V20.9375ZM48.1562 20.9375H39.7812V33.5H48.1562V20.9375Z" fill="#98D3BC"/>
<path d="M52.3438 67H35.5938V43.9688C35.5938 42.813 36.5317 41.875 37.6875 41.875H50.25C51.4058 41.875 52.3438 42.813 52.3438 43.9688V67ZM27.2188 52.3438V43.9688C27.2188 42.813 26.2808 41.875 25.125 41.875H23.0312V54.4375H25.125C26.2808 54.4375 27.2188 53.4995 27.2188 52.3438ZM14.6562 41.875H12.5625C11.4067 41.875 10.4688 42.813 10.4688 43.9688V52.3438C10.4688 53.4995 11.4067 54.4375 12.5625 54.4375H14.6562V41.875ZM27.2188 31.4062V23.0312C27.2188 21.8755 26.2808 20.9375 25.125 20.9375H23.0312V33.5H25.125C26.2808 33.5 27.2188 32.562 27.2188 31.4062ZM14.6562 20.9375H12.5625C11.4067 20.9375 10.4688 21.8755 10.4688 23.0312V31.4062C10.4688 32.562 11.4067 33.5 12.5625 33.5H14.6562V20.9375ZM52.3438 31.4062V23.0312C52.3438 21.8755 51.4058 20.9375 50.25 20.9375H48.1562V33.5H50.25C51.4058 33.5 52.3438 32.562 52.3438 31.4062ZM39.7812 20.9375H37.6875C36.5317 20.9375 35.5938 21.8755 35.5938 23.0312V31.4062C35.5938 32.562 36.5317 33.5 37.6875 33.5H39.7812V20.9375ZM0 16.75L31.4062 6.28125L62.8125 18.8438V12.5625L31.4062 0L0 10.4688V16.75Z" fill="#D97360"/>
</svg>
