<svg width="72" height="78" viewBox="0 0 72 78" fill="none" xmlns="http://www.w3.org/2000/svg">
<path d="M71.8717 72.3891C71.8717 75.0843 69.6899 77.1378 66.8663 77.1378H8.72733C6.03214 77.1378 3.72198 74.9559 3.72198 72.3891V15.5335C3.72198 12.8383 5.9038 10.6565 8.72733 10.6565H66.9947C69.6899 10.6565 72 12.8383 72 15.5335V72.3891H71.8717Z" fill="#93A2AA"/>
<path d="M68.1497 72.3891C68.1497 75.0843 65.9679 77.1378 63.1444 77.1378H5.00535C2.18182 77.2661 0 75.0843 0 72.3891V15.5335C0 12.8383 2.18182 10.6565 5.00535 10.6565H63.2727C65.9679 10.6565 68.2781 12.8383 68.2781 15.5335V72.3891H68.1497Z" fill="#F0F4F5"/>
<path d="M61.9893 70.0792C53.7754 78.0365 38.8877 77.2664 38.8877 77.2664C38.8877 77.2664 49.7968 74.0579 59.8075 62.2504C67.3797 53.3948 68.1497 42.614 68.1497 42.614C68.1497 42.614 72.6417 59.6835 61.9893 70.0792Z" fill="#93A2AA"/>
<path d="M11.6791 23.1059C13.7347 23.1059 15.4011 21.497 15.4011 19.5123C15.4011 17.5276 13.7347 15.9187 11.6791 15.9187C9.62358 15.9187 7.95721 17.5276 7.95721 19.5123C7.95721 21.497 9.62358 23.1059 11.6791 23.1059Z" fill="#3E4347"/>
<path d="M26.6952 23.1059C28.7508 23.1059 30.4171 21.497 30.4171 19.5123C30.4171 17.5276 28.7508 15.9187 26.6952 15.9187C24.6396 15.9187 22.9733 17.5276 22.9733 19.5123C22.9733 21.497 24.6396 23.1059 26.6952 23.1059Z" fill="#3E4347"/>
<path d="M41.4546 23.1059C43.5101 23.1059 45.1765 21.497 45.1765 19.5123C45.1765 17.5276 43.5101 15.9187 41.4546 15.9187C39.399 15.9187 37.7327 17.5276 37.7327 19.5123C37.7327 21.497 39.399 23.1059 41.4546 23.1059Z" fill="#3E4347"/>
<path d="M56.3422 23.1059C58.3978 23.1059 60.0641 21.497 60.0641 19.5123C60.0641 17.5276 58.3978 15.9187 56.3422 15.9187C54.2867 15.9187 52.6203 17.5276 52.6203 19.5123C52.6203 21.497 54.2867 23.1059 56.3422 23.1059Z" fill="#3E4347"/>
<path d="M46.9733 3.59773C46.0749 2.05763 44.7914 0.389179 42.3529 0.260837C40.0428 0.132495 39.9144 2.95602 42.2246 3.08436C42.0963 3.08436 42.738 3.46939 42.6096 3.34105C43.123 3.85442 43.3797 4.49613 43.7647 5.13784C44.5348 6.93463 44.7914 8.85976 44.7914 10.7849H48.5134C48.385 8.34639 48 5.77955 46.9733 3.59773ZM42.2246 3.08436C42.3529 3.08436 42.3529 3.08436 42.2246 3.08436V3.08436Z" fill="#3E4347"/>
<path d="M32.0856 3.59773C31.3155 2.05763 29.9037 0.389179 27.4652 0.260837C25.1551 0.132495 25.0267 2.95602 27.3369 3.08436C27.2086 3.08436 27.8503 3.46939 27.7219 3.34105C28.2353 3.85442 28.492 4.49613 28.877 5.13784C29.6471 6.93463 29.9037 8.85976 29.9037 10.7849H33.6257C33.4973 8.34639 33.2406 5.77955 32.0856 3.59773Z" fill="#3E4347"/>
<path d="M17.1979 3.59773C16.4279 2.05763 15.0161 0.389179 12.5776 0.260837C10.2674 0.132495 10.2674 2.95602 12.5776 3.08436C12.4492 3.08436 13.091 3.46939 12.9626 3.34105C13.476 3.85442 13.7327 4.49613 14.1177 5.13784C14.8877 6.93463 15.1444 8.85976 15.1444 10.7849H18.8664C18.738 8.34639 18.353 5.77955 17.1979 3.59773Z" fill="#3E4347"/>
<path d="M61.7327 3.59773C60.9626 2.05763 59.5508 0.389179 57.1123 0.260837C54.8022 0.132495 54.6738 2.95602 56.984 3.08436C56.984 3.08436 57.4974 3.46939 57.369 3.34105C57.8824 3.85442 58.1391 4.49613 58.5241 5.13784C59.2942 6.93463 59.5508 8.85976 59.5508 10.7849H63.2728C63.2728 8.34639 62.8877 5.77955 61.7327 3.59773Z" fill="#3E4347"/>
<path d="M41.4545 18.2288C41.0695 18.2288 41.9679 18.3572 41.4545 18.2288C41.8395 18.3572 40.9411 17.8438 41.1978 17.9722C40.6845 17.4588 40.4278 16.8171 40.0427 16.1754C39.2727 14.3786 39.016 12.4534 39.016 10.5283C39.016 8.60317 39.2727 6.67804 40.0427 4.88125C40.2994 4.23954 40.5561 3.85451 41.0695 3.2128C41.0695 3.08446 41.1978 3.08446 41.5829 2.82777C41.1978 3.08446 41.5828 2.82777 41.7112 2.82777C41.4545 2.95612 41.4545 2.95612 41.5829 2.82777H41.4545C43.893 2.69943 43.893 -0.124097 41.4545 0.00424498C39.016 0.132587 37.7326 1.80104 36.8342 3.34114C35.6791 5.52296 35.4224 8.0898 35.4224 10.4C35.4224 12.7101 35.8075 15.277 36.8342 17.4588C37.6042 18.9989 39.016 20.6673 41.4545 20.7957C43.893 21.1807 43.893 18.3572 41.4545 18.2288Z" fill="#94989B"/>
<path d="M26.6952 18.2288C26.1818 18.2288 27.0802 18.3572 26.6952 18.2288C27.0802 18.3572 26.1818 17.8438 26.4385 17.9722C25.9251 17.4588 25.6684 16.8171 25.2834 16.1754C24.5134 14.3786 24.2567 12.4534 24.2567 10.5283C24.2567 8.60317 24.5134 6.67804 25.2834 4.88125C25.5401 4.23954 25.7968 3.85451 26.3101 3.2128C26.3101 3.08446 26.4385 3.08446 26.8235 2.82777C26.4385 3.08446 26.8235 2.82777 26.9519 2.82777C26.6952 2.95612 26.6952 2.95612 26.8235 2.82777H26.6952C29.1337 2.69943 29.1337 -0.124097 26.6952 0.00424498C24.2567 0.132587 22.9732 1.80104 22.0749 3.34114C20.9198 5.52296 20.6631 8.0898 20.6631 10.4C20.6631 12.7101 21.0481 15.277 22.0749 17.4588C22.8449 18.9989 24.2567 20.6673 26.6952 20.7957C29.0053 21.1807 29.0053 18.3572 26.6952 18.2288Z" fill="#94989B"/>
<path d="M11.8075 18.2288C11.4224 18.2288 12.1925 18.3572 11.8075 18.2288C12.1925 18.3572 11.2941 17.8438 11.5508 17.9722C11.0374 17.4588 10.7807 16.8171 10.3957 16.1754C9.62566 14.3786 9.36897 12.4534 9.36897 10.5283C9.36897 8.60317 9.62566 6.67804 10.3957 4.88125C10.6524 4.23954 10.9091 3.85451 11.4224 3.2128C11.4224 3.08446 11.5508 3.08446 11.9358 2.82777C11.5508 3.08446 11.9358 2.82777 12.0642 2.82777C11.8075 2.95612 11.8075 2.95612 11.9358 2.82777H11.8075C14.246 2.69943 14.246 -0.124097 11.8075 0.00424498C9.36897 0.132587 8.08555 1.80104 7.18716 3.34114C6.03208 5.52296 5.77539 8.0898 5.77539 10.4C5.77539 12.7101 6.16042 15.277 7.18716 17.4588C7.95721 18.9989 9.36897 20.6673 11.8075 20.7957C14.246 21.1807 14.246 18.3572 11.8075 18.2288Z" fill="#94989B"/>
<path d="M56.3423 18.2288C55.9572 18.2288 56.7273 18.3572 56.3423 18.2288C56.7273 18.3572 55.8289 17.8438 56.0856 17.9722C55.5722 17.4588 55.3155 16.8171 54.9305 16.1754C54.1604 14.3786 53.9038 12.4534 53.9038 10.5283C53.9038 8.60317 54.1604 6.67804 54.9305 4.88125C55.1872 4.23954 55.4439 3.85451 55.9572 3.2128C55.9572 3.08446 56.0856 3.08446 56.4706 2.82777C56.0856 3.08446 56.4706 2.82777 56.5989 2.82777C56.3423 2.95612 56.3423 2.95612 56.4706 2.82777H56.3423C58.7808 2.69943 58.7808 -0.124097 56.3423 0.00424498C53.9038 0.389272 52.6203 2.05772 51.7219 3.59783C50.5669 5.77964 50.3102 8.34649 50.3102 10.6566C50.3102 12.9668 50.6952 15.5337 51.7219 17.7155C52.492 19.2556 53.9038 20.924 56.3423 21.0524C58.7808 21.1807 58.7808 18.3572 56.3423 18.2288Z" fill="#94989B"/>
<path d="M6.0321 30.0364H61.0909V33.63H6.0321V30.0364Z" fill="#7D8B91"/>
<path d="M6.0321 40.8171H61.0909V44.4107H6.0321V40.8171Z" fill="#7D8B91"/>
<path d="M6.0321 51.4695H61.0909V55.0631H6.0321V51.4695Z" fill="#7D8B91"/>
<path d="M33.4974 62.2502H54.8022V65.8438H33.4974V62.2502Z" fill="#7D8B91"/>
<path d="M68.1497 42.614C68.1497 59.1702 55.8289 77.2664 38.8877 77.2664C38.8877 77.2664 45.8182 73.4161 45.8182 59.4268C65.1979 59.4268 68.1497 42.614 68.1497 42.614Z" fill="#D7DADB"/>
</svg>
