<svg width="83" height="83" viewBox="0 0 83 83" fill="none" xmlns="http://www.w3.org/2000/svg">
<path d="M41.5 83C64.4198 83 83 64.4198 83 41.5C83 18.5802 64.4198 0 41.5 0C18.5802 0 0 18.5802 0 41.5C0 64.4198 18.5802 83 41.5 83Z" fill="#049571"/>
<g opacity="0.2">
<path d="M62.25 41.5C62.25 30.0875 52.9125 20.75 41.5 20.75C31.7734 20.75 23.6031 27.4938 21.3984 36.4422C15.1734 37.4797 10.375 42.7969 10.375 49.2812C10.375 56.4141 16.2109 62.25 23.3438 62.25H33.7188C35.1453 62.25 36.3125 61.0828 36.3125 59.6562V52.5234C36.3125 51.4859 35.4047 50.5781 34.3672 50.5781H30.3469C28.4016 50.5781 27.8828 49.2812 29.1797 47.725L39.1656 35.0156C40.4625 33.4594 42.5375 33.4594 43.7047 35.0156L53.6906 47.725C54.9875 49.2812 54.4688 50.5781 52.5234 50.5781H48.5031C47.4656 50.5781 46.5578 51.4859 46.5578 52.5234V59.6562C46.5578 61.0828 47.725 62.25 49.1516 62.25H62.1203C67.8266 62.25 72.4953 57.5812 72.4953 51.875C72.4953 46.1688 67.9562 41.5 62.25 41.5Z" fill="#231F20"/>
</g>
<path d="M62.25 38.9062C62.25 27.4937 52.9125 18.1562 41.5 18.1562C31.7734 18.1562 23.6031 24.9 21.3984 33.8484C15.1734 34.8859 10.375 40.2031 10.375 46.6875C10.375 53.8203 16.2109 59.6562 23.3438 59.6562H33.7188C35.1453 59.6562 36.3125 58.4891 36.3125 57.0625V49.9297C36.3125 48.8922 35.4047 47.9844 34.3672 47.9844H30.3469C28.4016 47.9844 27.8828 46.6875 29.1797 45.1312L39.1656 32.4219C40.4625 30.8656 42.5375 30.8656 43.7047 32.4219L53.6906 45.1312C54.9875 46.6875 54.4688 47.9844 52.5234 47.9844H48.5031C47.4656 47.9844 46.5578 48.8922 46.5578 49.9297V57.0625C46.5578 58.4891 47.725 59.6562 49.1516 59.6562H62.1203C67.8266 59.6562 72.4953 54.9875 72.4953 49.2812C72.4953 43.575 67.9562 38.9062 62.25 38.9062Z" fill="white"/>
</svg>
